<svg width="64" height="64" viewBox="0 0 64 64" fill="none" xmlns="http://www.w3.org/2000/svg">
<path d="M44.9113 5.53647C42.4453 1.22076 36.9476 -0.278742 32.6319 2.18725L5.77135 17.5353C2.08574 19.6413 2.07385 24.9514 5.75 27.0739L29.9794 41.0628L30.0855 34.2904C30.1197 32.1135 28.9718 30.0889 27.0863 29.0002L15.5272 22.3265L44.9113 5.53647Z" fill="url(#paint0_linear_20_7)"/>
<path d="M6.41163 34.5738C3.9071 38.8673 5.35733 44.3781 9.6508 46.8827L36.3729 62.4706C40.0395 64.6094 44.6442 61.9646 44.6442 57.7198L44.6442 29.7421L38.7261 33.0363C36.8238 34.0952 35.6443 36.1016 35.6443 38.2788L35.6442 51.6261L6.41163 34.5738Z" fill="url(#paint1_linear_20_7)"/>
<path d="M59.4858 44.0218C59.4635 48.9923 55.4161 53.0037 50.4456 52.9814L50.597 19.1391L39.0378 25.8127C37.1523 26.9013 34.825 26.883 32.9568 25.765L27.1448 22.2869L51.3743 8.29806C55.0504 6.17564 59.6432 8.84102 59.6242 13.0858L59.4858 44.0218Z" fill="url(#paint2_linear_20_7)"/>
<defs>
<linearGradient id="paint0_linear_20_7" x1="31.3121" y1="1" x2="31.3121" y2="63.2281" gradientUnits="userSpaceOnUse">
<stop stop-color="#9089FC"/>
<stop offset="0.765" stop-color="#415A77"/>
</linearGradient>
<linearGradient id="paint1_linear_20_7" x1="31.3121" y1="1" x2="31.3121" y2="63.2281" gradientUnits="userSpaceOnUse">
<stop stop-color="#9089FC"/>
<stop offset="0.765" stop-color="#415A77"/>
</linearGradient>
<linearGradient id="paint2_linear_20_7" x1="31.3121" y1="1" x2="31.3121" y2="63.2281" gradientUnits="userSpaceOnUse">
<stop stop-color="#9089FC"/>
<stop offset="0.765" stop-color="#415A77"/>
</linearGradient>
</defs>
</svg>
